<svg width="142" height="142" viewBox="0 0 142 142" fill="none" xmlns="http://www.w3.org/2000/svg">
<rect width="142" height="142" rx="33" fill="url(#paint0_linear_193_25)"/>
<path fill-rule="evenodd" clip-rule="evenodd" d="M42.4497 63.1214C42.4497 63.1214 43.6963 60.8712 44.8944 59.8139C45.7603 59.0498 47.3996 57.2343 48.2019 56.2188L48.5614 54.7808L48.9209 56.2188C49.7233 57.2343 51.3985 59.0498 52.2644 59.8139C53.4625 60.8712 54.6731 63.1214 54.6731 63.1214V91.8824L70.4916 108.132L86.7416 91.8824V63.1214C86.7416 63.1214 87.8798 60.8741 89.0425 59.8139C89.8769 59.053 91.4252 57.2352 92.2062 56.2188L92.6376 54.7808L93.069 56.2188C93.8499 57.2352 95.3982 59.053 96.2327 59.8139C97.3954 60.8741 98.5336 63.1214 98.5336 63.1214V96.3403L70.4916 123.376L42.4497 96.3403V63.1214ZM48.5614 63.1214L45.5721 69.5728H51.2865L48.5614 63.1214ZM89.7163 69.5728L92.6376 63.1214L95.5736 69.5728H89.7163Z" fill="#F5D17E"/>
<path d="M27.2064 32.2035C26.3053 30.5446 25.6716 29.5979 25.3369 27.7456C25.0022 25.8932 24.9402 24.8536 25.0493 23L32.9586 30.9093C32.0724 28.5898 32.0957 27.1015 32.9586 24.1504L38.9984 31.4845C38.7501 28.8311 39.0237 27.6702 39.8612 25.8761L44.0315 32.2035C44.3701 30.3523 44.7301 29.3867 45.901 27.8894C45.901 27.8894 51.0554 36.2986 56.8301 38.0995C58.8397 38.7262 61.1242 37.8908 63.0138 38.8185C64.5177 39.5569 66.1775 41.6946 66.1775 41.6946C66.1775 41.6946 67.243 40.7925 68.0469 40.2566C68.9098 39.6814 69.7138 39.5545 70.7792 39.5375C71.898 39.5198 72.6722 39.7221 73.6553 40.2566C74.4645 40.6965 75.381 41.6946 75.381 41.6946C75.381 41.6946 77.4157 39.549 79.1199 38.8185C81.2077 37.9236 83.0032 38.8131 85.1597 38.0995C90.6274 36.2903 94.7946 27.8894 94.7946 27.8894C95.6758 29.4511 96.8572 30.4086 97.2393 32.2035L101.697 25.8761C102.664 27.6874 102.906 28.7924 102.848 30.9093L108.744 24.1504C109.561 26.8195 109.432 28.2947 108.744 30.9093L116.365 23C116.731 24.8533 116.502 25.8923 116.078 27.7456C115.653 29.5988 115.189 30.5365 114.208 32.2035C112.287 35.4698 110.791 37.0913 108.025 39.6814C105.384 42.1536 103.658 43.3018 100.547 45.1459C94.0535 48.9944 82.2836 51.4733 82.2836 51.4733L83.5732 55.2867C81.3416 56.5699 80.4303 57.7154 77.8588 58.5725C75.2873 59.4297 74.0015 59.5726 74.0015 59.5726C74.0015 59.5726 72.0001 59.8583 70.7157 59.8583C69.4313 59.8583 67.4299 59.5726 67.4299 59.5726C67.4299 59.5726 66.4299 59.4297 63.8583 58.5725C61.2868 57.7154 60.2884 56.5699 58.001 55.2867L58.9872 51.4733C58.9872 51.4733 47.1299 48.7976 41.0116 45.1459C37.9058 43.2922 36.1889 42.1374 33.5338 39.6814C30.7256 37.0837 29.0322 35.5651 27.2064 32.2035Z" fill="#F5D17E"/>
<defs>
<linearGradient id="paint0_linear_193_25" x1="71" y1="0" x2="71" y2="142" gradientUnits="userSpaceOnUse">
<stop stop-color="#343434"/>
<stop offset="1" stop-color="#111111"/>
</linearGradient>
</defs>
</svg>
