<svg width="500" height="500" viewBox="0 0 500 500" fill="none" xmlns="http://www.w3.org/2000/svg">
<rect width="500" height="500" fill="url(#paint0_linear_1_1403)"/>
<path fill-rule="evenodd" clip-rule="evenodd" d="M149.471 222.259C149.471 222.259 153.86 214.335 158.079 210.613C161.128 207.922 166.9 201.529 169.725 197.954L170.991 192.89L172.257 197.954C175.082 201.529 180.981 207.922 184.03 210.613C188.249 214.335 192.511 222.259 192.511 222.259V323.53L248.21 380.748L305.428 323.53V222.259C305.428 222.259 309.436 214.346 313.53 210.613C316.468 207.933 321.92 201.533 324.67 197.954L326.189 192.89L327.708 197.954C330.458 201.533 335.909 207.933 338.848 210.613C342.942 214.346 346.949 222.259 346.949 222.259V339.227L248.21 434.422L149.471 339.227V222.259ZM170.991 222.259L160.465 244.975H180.587L170.991 222.259ZM315.903 244.975L326.189 222.259L336.527 244.975H315.903Z" fill="#F5D17E"/>
<path d="M95.7971 113.393C92.6245 107.551 90.3931 104.218 89.2145 97.6957C88.0359 91.1732 87.8175 87.5126 88.2018 80.986L116.051 108.835C112.931 100.668 113.013 95.4277 116.051 85.0368L137.318 110.861C136.444 101.518 137.407 97.4303 140.356 91.1131L155.041 113.393C156.233 106.874 157.5 103.474 161.623 98.202C161.623 98.202 179.773 127.812 200.106 134.153C207.182 136.36 215.226 133.418 221.879 136.685C227.175 139.285 233.019 146.812 233.019 146.812C233.019 146.812 236.771 143.636 239.602 141.749C242.64 139.723 245.471 139.276 249.223 139.217C253.162 139.154 255.888 139.867 259.35 141.749C262.199 143.298 265.426 146.812 265.426 146.812C265.426 146.812 272.591 139.257 278.591 136.685C285.943 133.534 292.265 136.666 299.858 134.153C319.111 127.783 333.784 98.202 333.784 98.202C336.887 103.701 341.046 107.073 342.392 113.393L358.089 91.1131C361.494 97.4909 362.346 101.382 362.14 108.835L382.9 85.0368C385.779 94.4351 385.324 99.6293 382.9 108.835L409.737 80.986C411.023 87.5115 410.219 91.1702 408.724 97.6957C407.23 104.221 405.594 107.523 402.142 113.393C395.377 124.894 390.108 130.603 380.368 139.723C371.072 148.428 364.994 152.471 354.038 158.965C331.174 172.516 289.731 181.244 289.731 181.244L294.272 194.672C286.414 199.19 283.205 203.223 274.151 206.241C265.096 209.26 260.569 209.763 260.569 209.763C260.569 209.763 253.522 210.769 248.999 210.769C244.476 210.769 237.429 209.763 237.429 209.763C237.429 209.763 233.908 209.26 224.853 206.241C215.799 203.223 212.283 199.19 204.229 194.672L207.701 181.244C207.701 181.244 165.95 171.823 144.407 158.965C133.471 152.438 127.426 148.371 118.077 139.723C108.189 130.576 102.226 125.229 95.7971 113.393Z" fill="#F5D17E"/>
<defs>
<linearGradient id="paint0_linear_1_1403" x1="250" y1="0" x2="250" y2="500" gradientUnits="userSpaceOnUse">
<stop stop-color="#343434"/>
<stop offset="1" stop-color="#111111"/>
</linearGradient>
</defs>
</svg>
