<svg width="102" height="102" viewBox="0 0 102 102" fill="none" xmlns="http://www.w3.org/2000/svg">
<rect width="102" height="102" rx="30" fill="url(#paint0_linear_1_1208)"/>
<path fill-rule="evenodd" clip-rule="evenodd" d="M30.4917 43.9042C30.4917 43.9042 31.3871 42.2878 32.2477 41.5283C32.8697 40.9795 34.0472 39.6753 34.6236 38.9459L34.8818 37.913L35.14 38.9459C35.7164 39.6753 36.9197 40.9795 37.5417 41.5283C38.4023 42.2878 39.2719 43.9042 39.2719 43.9042V64.5634L50.6345 76.2359L62.307 64.5634V43.9042C62.307 43.9042 63.1246 42.2899 63.9597 41.5283C64.5591 40.9818 65.6713 39.676 66.2322 38.9459L66.5421 37.913L66.852 38.9459C67.413 39.676 68.5251 40.9818 69.1245 41.5283C69.9597 42.2899 70.7773 43.9042 70.7773 43.9042V67.7656L50.6345 87.1853L30.4917 67.7656V43.9042ZM34.8818 43.9042L32.7345 48.5382H36.8393L34.8818 43.9042ZM64.4438 48.5382L66.5421 43.9042L68.6511 48.5382H64.4438Z" fill="#F5D17E"/>
<path d="M19.5424 21.6954C18.8952 20.5038 18.44 19.8238 18.1995 18.4933C17.9591 17.1627 17.9145 16.4159 17.9929 15.0845L23.6742 20.7658C23.0377 19.0997 23.0544 18.0306 23.6742 15.9108L28.0127 21.179C27.8344 19.273 28.0309 18.4391 28.6325 17.1504L31.628 21.6954C31.8712 20.3657 32.1298 19.6721 32.9709 18.5966C32.9709 18.5966 36.6734 24.637 40.8214 25.9306C42.2649 26.3808 43.9059 25.7807 45.2632 26.4471C46.3434 26.9775 47.5357 28.513 47.5357 28.513C47.5357 28.513 48.3011 27.865 48.8785 27.48C49.4983 27.0669 50.0759 26.9757 50.8412 26.9636C51.6448 26.9508 52.2009 27.0962 52.9071 27.48C53.4884 27.796 54.1467 28.513 54.1467 28.513C54.1467 28.513 55.6083 26.9718 56.8324 26.4471C58.332 25.8042 59.6218 26.4432 61.1708 25.9306C65.0983 24.631 68.0917 18.5966 68.0917 18.5966C68.7246 19.7184 69.5732 20.4062 69.8477 21.6954L73.0499 17.1504C73.7445 18.4515 73.9183 19.2452 73.8763 20.7658L78.1114 15.9108C78.6987 17.8281 78.6058 18.8877 78.1114 20.7658L83.5861 15.0845C83.8485 16.4157 83.6844 17.1621 83.3795 18.4933C83.0746 19.8245 82.741 20.498 82.0367 21.6954C80.6567 24.0416 79.5818 25.2064 77.5949 27.0669C75.6985 28.8427 74.4585 29.6675 72.2235 30.9921C67.5593 33.7565 59.1049 35.5372 59.1049 35.5372L60.0312 38.2763C58.4282 39.1981 57.7736 40.0209 55.9265 40.6366C54.0794 41.2523 53.1558 41.3549 53.1558 41.3549C53.1558 41.3549 51.7182 41.5601 50.7956 41.5601C49.873 41.5601 48.4353 41.3549 48.4353 41.3549C48.4353 41.3549 47.717 41.2523 45.8698 40.6366C44.0227 40.0209 43.3056 39.1981 41.6625 38.2763L42.3709 35.5372C42.3709 35.5372 33.8536 33.6151 29.4588 30.9921C27.2279 29.6606 25.9946 28.8311 24.0874 27.0669C22.0702 25.2009 20.8539 24.1101 19.5424 21.6954Z" fill="#F5D17E"/>
<defs>
<linearGradient id="paint0_linear_1_1208" x1="51" y1="0" x2="51" y2="102" gradientUnits="userSpaceOnUse">
<stop stop-color="#F3F3F7"/>
<stop offset="1" stop-color="#EFEFEF"/>
</linearGradient>
</defs>
</svg>
